<?xml version="1.0" encoding="UTF-8"?>
<svg width="92px" height="53px" viewBox="0 0 92 53" version="1.1" xmlns="http://www.w3.org/2000/svg" xmlns:xlink="http://www.w3.org/1999/xlink">
    <!-- Generator: Sketch 41.2 (35397) - http://www.bohemiancoding.com/sketch -->
    <title>eyes</title>
    <desc>Created with Sketch.</desc>
    <defs></defs>
    <g id="Interfaz" stroke="none" stroke-width="1" fill="none" fill-rule="evenodd">
        <g id="OV-Freelance" transform="translate(-674.000000, -1926.000000)" fill="#FFFFFF">
            <g id="Servicios" transform="translate(0.000000, 1674.000000)">
                <g id="Servicio-2" transform="translate(530.000000, 252.000000)">
                    <g id="eyes" transform="translate(144.000000, 0.000000)">
                        <g id="Shape">
                            <path d="M90.3350506,22.1247774 C85.191821,15.4375205 78.5296965,9.90609932 71.069284,6.12894178 C63.4536887,2.27319178 55.260856,0.272623288 46.7082568,0.167712329 C46.4727082,0.161178082 45.5269339,0.161178082 45.2913852,0.167712329 C36.738965,0.272804795 28.5459533,2.27319178 20.930358,6.12894178 C13.4699455,9.90609932 6.80817899,15.437339 1.66477043,22.1247774 C-0.31663035,24.7009041 -0.31663035,28.2992774 1.66477043,30.8754041 C6.808,37.562661 13.4699455,43.0940822 20.930358,46.8712397 C28.5459533,50.7269897 36.738786,52.7275582 45.2913852,52.8324692 C45.5269339,52.8390034 46.4727082,52.8390034 46.7082568,52.8324692 C55.260677,52.7273767 63.4536887,50.7269897 71.069284,46.8712397 C78.5296965,43.0940822 85.191642,37.5628425 90.3350506,30.8754041 C92.3164514,28.2989144 92.3164514,24.7009041 90.3350506,22.1247774 L90.3350506,22.1247774 Z M22.5958444,43.4888596 C15.6296187,39.9618185 9.40834241,34.7961336 4.60447471,28.5503014 C3.67606226,27.3430993 3.67606226,25.6570822 4.60447471,24.4498801 C9.40816342,18.2040479 15.6294397,13.038363 22.5958444,9.51132192 C24.5743813,8.50976712 26.5948016,7.64361644 28.6526304,6.91032877 C23.3585136,11.7362329 20.0230661,18.7300548 20.0230661,26.5 C20.0230661,34.2703082 23.3586926,41.2646747 28.6533463,46.0903973 C26.5955175,45.3571096 24.5745603,44.4905959 22.5958444,43.4888596 L22.5958444,43.4888596 Z M46,49.0618459 C33.7317821,49.0618459 23.751035,38.940661 23.751035,26.4998185 C23.751035,14.058976 33.7317821,3.9379726 46,3.9379726 C58.2682179,3.9379726 68.248965,14.0591575 68.248965,26.5 C68.248965,38.9408425 58.2682179,49.0618459 46,49.0618459 L46,49.0618459 Z M87.3955253,28.5501199 C82.5918366,34.7959521 76.3705603,39.961637 69.4041556,43.4886781 C67.4279455,44.4891438 65.4087782,45.3514829 63.3534553,46.0840445 C68.6439922,41.2583219 71.9769339,34.2666781 71.9769339,26.4998185 C71.9769339,18.7287842 68.6405914,11.7340548 63.3455798,6.90815068 C65.4039455,7.64161986 67.4252607,8.50885959 69.4043346,9.5109589 C76.3705603,13.038 82.5918366,18.2036849 87.3957043,24.4495171 C88.3239377,25.6569007 88.3239377,27.3429178 87.3955253,28.5501199 L87.3955253,28.5501199 Z"></path>
                            <path d="M46,16.8445616 C40.7499144,16.8445616 36.478716,21.1758596 36.478716,26.4998185 C36.478716,31.8237774 40.7499144,36.1550753 46,36.1550753 C51.2500856,36.1550753 55.521284,31.8237774 55.521284,26.4998185 C55.521463,21.1758596 51.2502646,16.8445616 46,16.8445616 L46,16.8445616 Z M46,32.3748322 C42.8055953,32.3748322 40.2065058,29.7395342 40.2065058,26.4998185 C40.2065058,23.2602842 42.8052374,20.6249863 46,20.6249863 C49.1944047,20.6249863 51.7933152,23.2602842 51.7933152,26.4998185 C51.7934942,29.7395342 49.1944047,32.3748322 46,32.3748322 L46,32.3748322 Z"></path>
                        </g>
                    </g>
                </g>
            </g>
        </g>
    </g>
</svg>