<?xml version="1.0" encoding="UTF-8"?>
<svg width="75px" height="75px" viewBox="0 0 75 75" version="1.1" xmlns="http://www.w3.org/2000/svg" xmlns:xlink="http://www.w3.org/1999/xlink">
    <!-- Generator: Sketch 41.2 (35397) - http://www.bohemiancoding.com/sketch -->
    <title>foco</title>
    <desc>Created with Sketch.</desc>
    <defs></defs>
    <g id="Interfaz" stroke="none" stroke-width="1" fill="none" fill-rule="evenodd">
        <g id="OV-Freelance" transform="translate(-335.000000, -2205.000000)" fill="#FFFFFF">
            <g id="Servicios" transform="translate(0.000000, 1674.000000)">
                <g id="Servicio-4" transform="translate(230.000000, 531.000000)">
                    <g id="foco" transform="translate(105.000000, 0.000000)">
                        <g id="Shape">
                            <path d="M8.39619141,24.3391113 L1.86708984,24.3391113 C0.864990234,24.3391113 0.052734375,25.1513672 0.052734375,26.1534668 C0.052734375,27.1555664 0.864990234,27.9678223 1.86708984,27.9678223 L8.39604492,27.9678223 C9.39829102,27.9678223 10.2105469,27.1555664 10.2105469,26.1534668 C10.2105469,25.1513672 9.39829102,24.3391113 8.39619141,24.3391113 L8.39619141,24.3391113 Z"></path>
                            <path d="M73.1324707,24.3391113 L66.6033691,24.3391113 C65.601416,24.3391113 64.7890137,25.1513672 64.7890137,26.1534668 C64.7890137,27.1555664 65.601416,27.9678223 66.6033691,27.9678223 L73.1324707,27.9678223 C74.1344238,27.9678223 74.9468262,27.1555664 74.9468262,26.1534668 C74.9468262,25.1513672 74.1344238,24.3391113 73.1324707,24.3391113 L73.1324707,24.3391113 Z"></path>
                            <path d="M15.8711426,47.7818848 C15.1625977,47.0733398 14.0138672,47.0733398 13.3051758,47.7818848 L8.55615234,52.5309082 C7.84760742,53.2394531 7.84760742,54.3881836 8.55615234,55.096875 C8.91049805,55.4512207 9.37485352,55.6283203 9.8390625,55.6283203 C10.3032715,55.6283203 10.7677734,55.4512207 11.1219727,55.096875 L15.8711426,50.3478516 C16.5796875,49.6394531 16.5796875,48.4905762 15.8711426,47.7818848 L15.8711426,47.7818848 Z"></path>
                            <path d="M63.121875,0.531445313 C62.4131836,-0.177099609 61.2647461,-0.177099609 60.5559082,0.531445313 L55.9369629,5.15039063 C55.228418,5.85893555 55.228418,7.0078125 55.9369629,7.71621094 C56.2914551,8.07026367 56.7558105,8.24750977 57.2200195,8.24750977 C57.6845215,8.24750977 58.148584,8.07026367 58.5029297,7.71606445 L63.1217285,3.09726563 C63.8302734,2.3887207 63.8302734,1.23984375 63.121875,0.531445313 L63.121875,0.531445313 Z"></path>
                            <path d="M19.0601074,5.14775391 L14.4436523,0.531445313 C13.7351074,-0.176806641 12.5862305,-0.176806641 11.8776855,0.531445313 C11.1691406,1.23999023 11.1691406,2.38886719 11.8776855,3.09741211 L16.4941406,7.71386719 C16.8484863,8.06806641 17.3128418,8.2453125 17.7770508,8.2453125 C18.2412598,8.2453125 18.7057617,8.06806641 19.0599609,7.71386719 C19.7685059,7.00532227 19.7685059,5.85644531 19.0601074,5.14775391 L19.0601074,5.14775391 Z"></path>
                            <path d="M66.4431152,52.5314941 L61.7116699,47.7996094 C61.0029785,47.0910645 59.854541,47.0910645 59.1457031,47.7997559 C58.4371582,48.5083008 58.4371582,49.6571777 59.1457031,50.3655762 L63.8772949,55.097168 C64.2316406,55.4515137 64.6959961,55.6286133 65.1602051,55.6286133 C65.624707,55.6286133 66.0887695,55.4513672 66.4431152,55.097168 C67.1516602,54.3887695 67.1516602,53.2398926 66.4431152,52.5314941 L66.4431152,52.5314941 Z"></path>
                            <path d="M37.4998535,4.92714844 C24.9537598,4.92714844 14.746875,15.6036621 14.746875,28.7270508 C14.746875,34.828125 16.9322754,41.3953125 20.7429199,46.7446289 C23.6695312,50.8527832 25.2162598,55.4236816 25.2162598,59.9633789 L25.2162598,71.3708496 C25.2162598,73.3716797 26.8441406,74.9995605 28.8449707,74.9995605 L46.1548828,74.9995605 C48.1557129,74.9995605 49.7835937,73.3716797 49.7835937,71.3708496 L49.7835937,59.9633789 C49.7835937,55.4238281 51.3303223,50.8527832 54.2566406,46.7446289 C58.0672852,41.395459 60.252832,34.828125 60.252832,28.7270508 C60.2525391,15.6036621 50.0456543,4.92714844 37.4998535,4.92714844 L37.4998535,4.92714844 Z M46.1545898,71.3711426 L28.8446777,71.3711426 L28.8446777,68.9979492 L37.499707,68.9979492 C38.5018066,68.9979492 39.314209,68.1856934 39.314209,67.1835938 C39.314209,66.1814941 38.5018066,65.3692383 37.499707,65.3692383 L28.8446777,65.3692383 L28.8446777,62.9961914 L46.1550293,62.9961914 L46.1570801,71.3708496 C46.1569336,71.3711426 46.1562012,71.3711426 46.1545898,71.3711426 L46.1545898,71.3711426 Z M34.9554199,37.5206543 L32.5290527,32.3370117 L42.4703613,32.3370117 L40.0442871,37.5206543 C39.9487793,37.724707 39.8920898,37.944873 39.877002,38.1695801 L38.4700195,59.3674805 L36.529541,59.3674805 L35.1225586,38.1695801 C35.1076172,37.944873 35.0507812,37.724707 34.9554199,37.5206543 L34.9554199,37.5206543 Z M51.3010254,44.6393555 C48.0603516,49.1885742 46.2900879,54.2682129 46.1620605,59.3674805 L42.1067871,59.3674805 L43.4750977,38.7499512 L46.9659668,31.2916992 C47.2290527,30.7297852 47.1867187,30.0722168 46.8536133,29.5486816 C46.5206543,29.025293 45.9432129,28.7081543 45.3227051,28.7081543 L29.6765625,28.7081543 C29.0560547,28.7081543 28.4787598,29.025293 28.1456543,29.5486816 C27.8126953,30.0720703 27.7702148,30.7296387 28.0333008,31.2915527 L31.5243164,38.7498047 L32.892627,59.367334 L28.8370605,59.367334 C28.7090332,54.2679199 26.938916,49.1884277 23.6980957,44.639209 C20.3649902,39.9602051 18.3751465,34.0116211 18.3751465,28.7269043 C18.3751465,17.6043457 26.9542969,8.55571289 37.4994141,8.55571289 C48.0445312,8.55571289 56.6236816,17.6043457 56.6236816,28.7269043 C56.6239746,34.0119141 54.6341309,39.960498 51.3010254,44.6393555 L51.3010254,44.6393555 Z"></path>
                        </g>
                    </g>
                </g>
            </g>
        </g>
    </g>
</svg>