<?xml version="1.0" encoding="UTF-8"?>
<svg width="74px" height="67px" viewBox="0 0 74 67" version="1.1" xmlns="http://www.w3.org/2000/svg" xmlns:xlink="http://www.w3.org/1999/xlink">
    <!-- Generator: Sketch 41.2 (35397) - http://www.bohemiancoding.com/sketch -->
    <title>mac</title>
    <desc>Created with Sketch.</desc>
    <defs></defs>
    <g id="Interfaz" stroke="none" stroke-width="1" fill="none" fill-rule="evenodd">
        <g id="OV-Freelance" transform="translate(-683.000000, -2215.000000)" fill="#FFFFFF">
            <g id="Servicios" transform="translate(0.000000, 1674.000000)">
                <g id="Servicio-5" transform="translate(530.000000, 541.000000)">
                    <g id="mac" transform="translate(153.000000, 0.000000)">
                        <g id="mac-copy">
                            <path d="M69.5326836,0.137072052 L4.46731641,0.137072052 C2.00407031,0.137072052 0,2.16550437 0,4.65869432 L0,50.1278493 C0,52.6210393 2.00407031,54.6494716 4.46731641,54.6494716 L26.762707,54.6494716 L26.762707,57.9394934 C26.762707,60.9555175 24.3383398,63.4093559 21.3585391,63.4093559 L16.4449102,63.4093559 C15.5028555,63.4093559 14.7390078,64.1823428 14.7390078,65.1359956 C14.7390078,66.0896485 15.5028555,66.8626354 16.4449102,66.8626354 L57.5548008,66.8626354 C58.4968555,66.8626354 59.2607031,66.0896485 59.2607031,65.1359956 C59.2607031,64.1823428 58.4968555,63.4093559 57.5548008,63.4093559 L52.6410273,63.4093559 C49.6612266,63.4093559 47.2368594,60.9555175 47.2368594,57.9394934 L47.2368594,54.6496179 L69.53225,54.6496179 C71.9954961,54.6496179 73.9997109,52.6211856 73.9997109,50.1279956 L73.9997109,4.65869432 C74,2.16550437 71.9959297,0.137072052 69.5326836,0.137072052 L69.5326836,0.137072052 Z M28.3165625,63.4096485 C29.4794609,61.8976135 30.1748008,59.9999629 30.1748008,57.939786 L30.1748008,54.6497642 L43.8253438,54.6497642 L43.8253438,57.939786 C43.8253438,59.9999629 44.5206836,61.8977598 45.683582,63.4096485 L28.3165625,63.4096485 L28.3165625,63.4096485 Z M70.5881953,50.1279956 C70.5881953,50.7170983 70.1147109,51.1964847 69.5325391,51.1964847 L4.46731641,51.1964847 C3.88528906,51.1964847 3.41166016,50.7172445 3.41166016,50.1279956 L3.41166016,41.0532991 L70.5881953,41.0532991 L70.5881953,50.1279956 L70.5881953,50.1279956 Z M70.5881953,37.5998734 L3.41180469,37.5998734 L3.41180469,4.65869432 C3.41180469,4.0695917 3.88528906,3.59020524 4.46746094,3.59020524 L69.5325391,3.59020524 C70.1145664,3.59020524 70.5883398,4.06944541 70.5883398,4.65869432 L70.5883398,37.5998734 L70.5881953,37.5998734 Z" id="Shape"></path>
                            <ellipse id="Oval" cx="37.0004336" cy="46.1254039" rx="1.84103906" ry="1.86341921"></ellipse>
                            <path d="M39.9250234,12.0327904 C39.2587344,11.358548 38.1789414,11.358548 37.5123633,12.0327904 L25.4564336,24.2352751 C24.7902891,24.9095175 24.7902891,26.0028755 25.4564336,26.6772642 C25.7897227,27.0144585 26.2260625,27.1829825 26.6628359,27.1829825 C27.0996094,27.1829825 27.5359492,27.0144585 27.8690938,26.6772642 L39.9250234,14.4747795 C40.591168,13.8005371 40.591168,12.707179 39.9250234,12.0327904 L39.9250234,12.0327904 Z" id="Shape"></path>
                            <path d="M47.0706484,19.1042162 C46.4046484,18.4299738 45.3248555,18.4299738 44.6581328,19.1040699 L39.8553594,23.9649345 C39.1892148,24.6393231 39.1892148,25.7326812 39.8553594,26.4069236 C40.1885039,26.7441179 40.6249883,26.9126419 41.0616172,26.9126419 C41.4981016,26.9126419 41.9347305,26.7441179 42.267875,26.4069236 L47.0706484,21.546059 C47.736793,20.8718166 47.736793,19.7784585 47.0706484,19.1042162 L47.0706484,19.1042162 Z" id="Shape"></path>
                        </g>
                    </g>
                </g>
            </g>
        </g>
    </g>
</svg>