<?xml version="1.0" encoding="UTF-8"?>
<svg width="57px" height="66px" viewBox="0 0 57 66" version="1.1" xmlns="http://www.w3.org/2000/svg" xmlns:xlink="http://www.w3.org/1999/xlink">
    <!-- Generator: Sketch 41.2 (35397) - http://www.bohemiancoding.com/sketch -->
    <title>tofeo</title>
    <desc>Created with Sketch.</desc>
    <defs></defs>
    <g id="Interfaz" stroke="none" stroke-width="1" fill="none" fill-rule="evenodd">
        <g id="OV-Freelance" transform="translate(-1042.000000, -2216.000000)" fill="#FFFFFF">
            <g id="Servicios" transform="translate(0.000000, 1674.000000)">
                <g id="Servicio-6" transform="translate(930.000000, 542.000000)">
                    <g id="tofeo" transform="translate(112.000000, 0.000000)">
                        <g id="Shape">
                            <path d="M55.7628409,6.36461719 C54.8476023,5.29366406 53.5128955,4.67968359 52.1009795,4.67968359 L47.46675,4.67968359 L47.46675,3.23722266 C47.46675,1.45225781 46.0071614,0 44.213475,0 L12.7867841,0 C10.9928386,0 9.53363864,1.45225781 9.53363864,3.23709375 L9.53363864,4.67955469 L4.89889091,4.67955469 C3.486975,4.67955469 2.15213864,5.29366406 1.23702955,6.36448828 C0.331247727,7.42422656 -0.0602386364,8.81615625 0.163227273,10.183207 C1.38095455,17.6339883 6.09317045,24.2163281 12.7809545,27.8268633 C13.3920205,29.2887891 14.0840523,30.6735 14.8547182,31.9635938 C17.3163409,36.0853711 20.3765932,38.9339414 23.7450341,40.3115625 C24.0863864,43.7461406 21.789675,46.9998633 18.3308114,47.7752344 C18.3234273,47.7769102 18.3182455,47.7794883 18.3109909,47.7811641 C17.6359295,47.9416523 17.1334227,48.544418 17.1334227,49.2652617 L17.1334227,56.2729922 L14.2852364,56.2729922 C11.7458864,56.2729922 9.680025,58.3286602 9.680025,60.8554805 L9.680025,64.472332 C9.680025,65.3160234 10.3672636,65.9998711 11.2151386,65.9998711 L45.9316364,65.9998711 C46.7795114,65.9998711 47.46675,65.3160234 47.46675,64.472332 L47.46675,60.8554805 C47.46675,58.3286602 45.4008886,56.2729922 42.8615386,56.2729922 L40.0130932,56.2729922 L40.0130932,49.2653906 C40.0130932,48.5431289 39.5087727,47.9394609 38.8318977,47.7803906 C38.82555,47.7788438 38.8194614,47.7767812 38.8131136,47.7752344 C35.3280818,46.994707 33.0270955,43.7082422 33.4043318,40.2478828 C36.7139591,38.8479609 39.7205795,36.0247852 42.1459295,31.9638516 C42.9165955,30.6736289 43.6084977,29.2887891 44.2196932,27.8266055 C50.9070886,24.2159414 55.6190455,17.6337305 56.8367727,10.183207 C57.0602386,8.81615625 56.6687523,7.42435547 55.7628409,6.36461719 L55.7628409,6.36461719 Z M3.19355455,9.69271875 C3.11375455,9.20455078 3.24938864,8.72540625 3.57558409,8.34358594 C3.90657273,7.95635156 4.38874091,7.734375 4.89876136,7.734375 L9.53350909,7.734375 L9.53350909,10.5447891 C9.53350909,14.9515781 10.0987159,19.2201797 11.1699273,23.1238477 C6.96021818,19.8136641 4.06176818,15.0050742 3.19355455,9.69271875 L3.19355455,9.69271875 Z M42.8615386,59.3281992 C43.7079886,59.3281992 44.3966523,60.0134648 44.3966523,60.8557383 L44.3966523,62.9450508 L12.7501227,62.9450508 L12.7501227,60.8557383 C12.7501227,60.0134648 13.4387864,59.3281992 14.2852364,59.3281992 L42.8615386,59.3281992 L42.8615386,59.3281992 Z M36.9428659,50.7929297 L36.9428659,56.2731211 L20.2039091,56.2731211 L20.2039091,50.7929297 L36.9428659,50.7929297 L36.9428659,50.7929297 Z M24.2297932,47.7379805 C24.6092318,47.3223867 24.9561545,46.8718594 25.2664159,46.3896211 C26.2894364,44.7990469 26.8264023,42.9920391 26.8504977,41.1464883 C27.3957545,41.2203516 27.9460636,41.2599258 28.5010364,41.2599258 C29.1048477,41.2599258 29.7030886,41.2137773 30.2955,41.1263789 C30.3304773,43.6064063 31.3005136,45.953918 32.9316205,47.7378516 L24.2297932,47.7378516 L24.2297932,47.7379805 Z M44.3963932,10.544918 C44.3963932,18.0703359 42.6597068,25.1227969 39.5064409,30.4027969 C36.5020227,35.4340078 32.5933773,38.2048477 28.5007773,38.2048477 C24.4075295,38.2048477 20.498625,35.4341367 17.4938182,30.4030547 C14.3404227,25.1229258 12.6037364,18.0704648 12.6037364,10.5451758 L12.6037364,3.23709375 C12.6037364,3.13654687 12.6858682,3.05494922 12.7866545,3.05494922 L44.2132159,3.05494922 C44.3142614,3.05494922 44.3963932,3.13667578 44.3963932,3.23709375 L44.3963932,10.544918 L44.3963932,10.544918 Z M53.8064455,9.69271875 C52.9382318,15.0046875 50.0400409,19.8131484 45.8304614,23.1235898 C46.9015432,19.2199219 47.46675,14.9515781 47.46675,10.544918 L47.46675,7.73450391 L52.1009795,7.73450391 C52.6111295,7.73450391 53.0932977,7.95660937 53.4241568,8.34371484 C53.7503523,8.72540625 53.8861159,9.20455078 53.8064455,9.69271875 L53.8064455,9.69271875 Z"></path>
                            <path d="M37.8196295,15.6824766 C37.6389136,15.1297266 37.1585591,14.7267656 36.5803977,14.6429766 L31.9481114,13.9731797 L29.87655,9.79635938 C29.6178477,9.2750625 29.08425,8.94493359 28.5,8.94493359 C27.9156205,8.94493359 27.3820227,9.2750625 27.12345,9.79635938 L25.0518886,13.9731797 L20.4196023,14.6429766 C19.8413114,14.7265078 19.3609568,15.1295977 19.1803705,15.6826055 C18.9999136,16.2357422 19.1504455,16.8426328 19.5688773,17.2485586 L22.9208659,20.4997031 L22.1294727,25.0904414 C22.0306295,25.6635586 22.2673091,26.2426055 22.74015,26.5844648 C23.2127318,26.9261953 23.8396023,26.9711836 24.3567477,26.7007383 L28.5,24.5334375 L32.6431227,26.7007383 C32.8677545,26.8181719 33.1129841,26.8760508 33.3571773,26.8760508 C33.6753409,26.8760508 33.9922091,26.7776953 34.2595909,26.5843359 C34.7324318,26.2424766 34.9691114,25.6634297 34.8702682,25.0903125 L34.078875,20.4995742 L37.4308636,17.2484297 C37.8495545,16.8426328 38.0000864,16.2356133 37.8196295,15.6824766 L37.8196295,15.6824766 Z M31.3582909,18.8725195 C30.9964705,19.2234023 30.8313,19.7289727 30.9168,20.2246172 L31.31865,22.5565312 L29.2141841,21.455543 C28.9907182,21.3384961 28.7452295,21.2802305 28.4998705,21.2802305 C28.2545114,21.2802305 28.0091523,21.3387539 27.7855568,21.455543 L25.6810909,22.5565312 L26.0829409,20.2246172 C26.1684409,19.7291016 26.0032705,19.2235312 25.64145,18.8725195 L23.9390932,17.2212305 L26.2918977,16.880918 C26.7918136,16.8087305 27.2241068,16.4961328 27.4477023,16.0453477 L28.5,13.9238086 L29.5521682,16.0453477 C29.7758932,16.4961328 30.2079273,16.8086016 30.7079727,16.880918 L33.0607773,17.2212305 L31.3582909,18.8725195 L31.3582909,18.8725195 Z"></path>
                        </g>
                    </g>
                </g>
            </g>
        </g>
    </g>
</svg>