<?xml version="1.0" encoding="UTF-8"?>
<svg width="63px" height="65px" viewBox="0 0 63 65" version="1.1" xmlns="http://www.w3.org/2000/svg" xmlns:xlink="http://www.w3.org/1999/xlink">
    <!-- Generator: Sketch 41.2 (35397) - http://www.bohemiancoding.com/sketch -->
    <title>editorial</title>
    <desc>Created with Sketch.</desc>
    <defs></defs>
    <g id="Interfaz" stroke="none" stroke-width="1" fill="none" fill-rule="evenodd">
        <g id="OV-Freelance" transform="translate(-1039.000000, -1916.000000)" fill="#FFFFFF">
            <g id="Servicios" transform="translate(0.000000, 1674.000000)">
                <g id="Servicio-3" transform="translate(930.000000, 242.000000)">
                    <g id="editorial" transform="translate(109.000000, 0.000000)">
                        <g id="Shape">
                            <path d="M49.358736,9.95033203 C50.21856,9.95033203 50.915844,9.24790039 50.915844,8.38144531 L50.915844,3.43116211 C50.915844,1.53930664 49.389102,0 47.51208,0 L14.570766,0 C14.157864,0 13.761846,0.165419922 13.469652,0.459570313 L0.570402,13.4563965 C0.27846,13.7505469 0.114282,14.1496875 0.114282,14.5657129 L0.114282,61.5687109 C0.114408,63.4606934 1.642032,65 3.51981,65 L47.511954,65 C49.388976,65 50.915718,63.4606934 50.915718,61.5688379 L50.915718,37.6148145 C50.915844,36.7484863 50.218686,36.0459277 49.358736,36.0459277 C48.498912,36.0459277 47.801628,36.7483594 47.801628,37.6148145 L47.801628,61.5688379 C47.801628,61.7305762 47.671722,61.8622266 47.512206,61.8622266 L3.519936,61.8622266 C3.359412,61.8622266 3.22875,61.7305762 3.22875,61.5688379 L3.22875,16.1348535 L12.72411,16.1348535 C14.601258,16.1348535 16.128126,14.5961816 16.128126,12.7049609 L16.128126,3.13777344 L47.51208,3.13777344 C47.671722,3.13777344 47.801502,3.26942383 47.801502,3.43116211 L47.801502,8.38144531 C47.801502,9.24790039 48.498786,9.95033203 49.358736,9.95033203 L49.358736,9.95033203 Z M13.01391,12.704834 C13.01391,12.8659375 12.883878,12.9969531 12.72411,12.9969531 L5.431482,12.9969531 L13.01391,5.35691406 L13.01391,12.704834 L13.01391,12.704834 Z"></path>
                            <path d="M61.34499,12.7455859 L59.512824,10.8998145 C57.45852,8.8299707 54.115992,8.83022461 52.061436,10.8998145 L37.518138,25.553125 L12.292434,25.553125 C11.432484,25.553125 10.735326,26.2555566 10.735326,27.1220117 C10.735326,27.9884668 11.432484,28.6908984 12.292434,28.6908984 L34.403922,28.6908984 L25.032168,38.1335449 L12.292434,38.1335449 C11.432484,38.1335449 10.735326,38.8359766 10.735326,39.7024316 C10.735326,40.5688867 11.432484,41.2713184 12.292434,41.2713184 L21.917826,41.2713184 L21.892752,41.296582 C21.702744,41.4880273 21.565404,41.7255566 21.493458,41.9863184 L19.08837,50.7139648 L12.292434,50.7139648 C11.432484,50.7139648 10.735326,51.4163965 10.735326,52.2828516 C10.735326,53.1493066 11.432484,53.8517383 12.292434,53.8517383 L20.272266,53.8517383 C20.272392,53.8517383 20.6136,53.8128906 20.663748,53.7996875 C20.671938,53.7975293 30.49137,51.052168 30.49137,51.052168 C30.750174,50.9798047 30.986046,50.8411719 31.175928,50.6498535 L61.345116,20.252832 C63.399168,18.1832422 63.399168,14.8154297 61.34499,12.7455859 L61.34499,12.7455859 Z M22.509144,50.0287988 L23.780106,45.4170996 L27.086346,48.7483496 L22.509144,50.0287988 L22.509144,50.0287988 Z M30.07494,47.3220313 L25.196094,42.4062793 L50.099742,17.314248 L54.978714,22.23 L30.07494,47.3220313 L30.07494,47.3220313 Z M59.142762,18.0341992 L57.180816,20.0109863 L52.301844,15.0951074 L54.26379,13.1183203 C55.104084,12.2717969 56.470932,12.2719238 57.310596,13.1183203 L59.142762,14.9643457 C59.982804,15.8107422 59.982804,17.1879297 59.142762,18.0341992 L59.142762,18.0341992 Z"></path>
                        </g>
                    </g>
                </g>
            </g>
        </g>
    </g>
</svg>