<?xml version="1.0" encoding="UTF-8"?>
<svg width="71px" height="60px" viewBox="0 0 71 60" version="1.1" xmlns="http://www.w3.org/2000/svg" xmlns:xlink="http://www.w3.org/1999/xlink">
    <!-- Generator: Sketch 41.2 (35397) - http://www.bohemiancoding.com/sketch -->
    <title>heart</title>
    <desc>Created with Sketch.</desc>
    <defs></defs>
    <g id="Interfaz" stroke="none" stroke-width="1" fill="none" fill-rule="evenodd">
        <g id="OV-Freelance" transform="translate(-335.000000, -1923.000000)" fill="#FFFFFF">
            <g id="Servicios" transform="translate(0.000000, 1674.000000)">
                <g id="Servicio-1" transform="translate(230.000000, 249.000000)">
                    <g id="heart" transform="translate(105.000000, 0.000000)">
                        <g id="Shape">
                            <path d="M65.4642187,5.93394495 C61.725625,2.13963303 56.7248398,0.0499541284 51.3826445,0.0499541284 C46.1228203,0.0499541284 41.1773652,2.08293578 37.4570762,5.775 L35.5370254,7.68165138 L33.6151719,5.77444954 C29.8951602,2.08279817 24.9506758,0.0498165138 19.692377,0.0498165138 C14.4324141,0.0498165138 9.48709766,2.08279817 5.76736328,5.77444954 C2.04818359,9.46513761 0,14.3723394 0,19.5922018 C0,24.8120642 2.04818359,29.7192661 5.76736328,33.4099541 L30.379125,57.833945 C31.8009277,59.244633 33.6680059,59.9500459 35.5355,59.9500459 C37.4025781,59.9499083 39.2700723,59.244633 40.691459,57.8340826 L65.1447187,33.5694495 C72.8250605,25.9473853 72.9684473,13.550367 65.4642187,5.93394495 L65.4642187,5.93394495 Z M62.5663926,31.0109174 L38.1132715,55.2758257 C36.6917461,56.6863761 34.3786992,56.6863761 32.9573125,55.2756881 L8.34541211,30.8512844 C5.31487695,27.8439908 3.64596094,23.8454587 3.64596094,19.5920642 C3.64596094,15.3386697 5.31487695,11.3401376 8.34541211,8.33270642 C11.376502,5.32458716 15.4063066,3.66798165 19.692377,3.66798165 C23.9767832,3.66798165 28.0057559,5.32458716 31.0369844,8.33270642 L32.9598086,10.2408716 L30.0153887,13.1650459 C29.3037246,13.8718349 29.3042793,15.0172018 30.0163594,15.7234404 C30.3723301,16.076422 30.8385449,16.252844 31.3048984,16.252844 C31.7718066,16.252844 32.2384375,16.0758716 32.5944082,15.7224771 L40.0352637,8.33256881 C43.0664922,5.32444954 47.0961582,3.66784404 51.3822285,3.66784404 C55.735,3.66784404 59.8100117,5.3709633 62.8569102,8.46330275 C68.9717852,14.6693119 68.8412949,24.7839908 62.5663926,31.0109174 L62.5663926,31.0109174 Z"></path>
                            <path d="M60.7936113,10.2514679 C59.1694863,8.63972477 57.154168,7.46862385 54.9657871,6.86408257 C53.9957773,6.5962844 52.9908223,7.15954128 52.7209668,8.12215596 C52.4511113,9.08463303 53.0186953,10.0820642 53.9887051,10.3498624 C55.5733086,10.7873394 57.0349102,11.6379358 58.2157012,12.8097248 C59.8803184,14.4616514 60.8770918,16.657844 61.0225586,18.9938532 C61.0823262,19.9531651 61.8848203,20.6914679 62.8404082,20.6914679 C62.878127,20.6914679 62.9162617,20.690367 62.9545352,20.6878899 C63.9593516,20.6266514 64.7234336,19.7683486 64.6613086,18.771055 C64.4609277,15.5536239 63.0873828,12.5280275 60.7936113,10.2514679 Z"></path>
                        </g>
                    </g>
                </g>
            </g>
        </g>
    </g>
</svg>